<svg width="14" height="28" viewBox="0 0 14 28" fill="none" xmlns="http://www.w3.org/2000/svg">
<path d="M1.3649 27.005C1.0799 27.005 0.794902 26.9 0.569902 26.675C0.134902 26.24 0.134902 25.52 0.569902 25.085L10.3499 15.305C11.0699 14.585 11.0699 13.415 10.3499 12.695L0.569902 2.91503C0.134902 2.48003 0.134902 1.76003 0.569902 1.32503C1.0049 0.890029 1.7249 0.890029 2.1599 1.32503L11.9399 11.105C12.7049 11.87 13.1399 12.905 13.1399 14C13.1399 15.095 12.7199 16.13 11.9399 16.895L2.1599 26.675C1.9349 26.885 1.6499 27.005 1.3649 27.005Z" fill="#00072D"/>
</svg>
