<svg width="22" height="12" viewBox="0 0 22 12" fill="none" xmlns="http://www.w3.org/2000/svg">
<path d="M16.4503 11.2999C14.7703 11.2999 13.2202 10.5099 12.2102 9.11993C11.9702 8.78993 12.0402 8.31995 12.3702 8.06995C12.7002 7.81995 13.1703 7.89992 13.4203 8.22992C14.1503 9.21992 15.2503 9.78992 16.4503 9.78992C18.5403 9.78992 20.2502 8.08993 20.2502 5.98993C20.2502 3.88993 18.5503 2.18994 16.4503 2.18994C15.0303 2.18994 13.6902 2.94991 12.9602 4.15991L10.3102 8.56995C9.31024 10.2399 7.48025 11.27 5.54025 11.27C2.62025 11.27 0.240234 8.88991 0.240234 5.96991C0.240234 3.04991 2.62025 0.669922 5.54025 0.669922C7.22025 0.669922 8.77024 1.45991 9.78024 2.84991C10.0202 3.17991 9.95024 3.64996 9.62024 3.89996C9.28024 4.13996 8.82025 4.06993 8.57025 3.73993C7.84025 2.74993 6.74025 2.17993 5.54025 2.17993C3.45025 2.17993 1.74023 3.87992 1.74023 5.97992C1.74023 8.07992 3.44025 9.77997 5.54025 9.77997C6.96025 9.77997 8.30024 9.01994 9.03024 7.80994L11.6802 3.39996C12.6802 1.72996 14.5103 0.699951 16.4503 0.699951C19.3703 0.699951 21.7502 3.07994 21.7502 5.99994C21.7502 8.91994 19.3703 11.2999 16.4503 11.2999Z" fill="white"/>
</svg>
