<svg width="56" height="62" viewBox="0 0 56 62" fill="none" xmlns="http://www.w3.org/2000/svg">
<path d="M28.14 61.3649C24.4442 61.3649 21.4425 58.4149 21.4425 54.7982C21.4425 54.1142 21.4425 53.6639 21.6781 53.2137L11.7684 47.5475C10.6159 48.6817 9.00225 49.3632 7.15563 49.3632C3.47241 49.3632 0.470703 46.4157 0.470703 42.7965C0.470703 39.8465 2.54283 37.3615 5.3065 36.4611V25.1409C2.54283 24.4594 0.470703 21.9744 0.470703 19.0269C0.470703 15.4077 3.47241 12.4602 7.15563 12.4602C10.8389 12.4602 13.8406 15.4077 13.8406 19.0269C13.8406 21.9744 11.7684 24.4594 9.00225 25.1409V36.4611C11.7684 37.3615 13.8406 39.8588 13.8406 42.7965C13.8406 43.2467 13.8406 43.697 13.605 44.381L23.5122 49.8135C24.6672 48.913 26.2783 48.229 28.1275 48.229C31.8107 48.229 34.8099 51.179 34.8099 54.7982C34.8099 58.4149 31.8232 61.3649 28.14 61.3649ZM42.6599 41.212L32.7528 35.7795C31.5977 36.68 29.9866 37.3615 28.14 37.3615C24.4568 37.3615 21.4551 34.414 21.4551 30.7948C21.4551 27.8473 23.5247 25.3623 26.2909 24.6784V13.3607C23.5247 12.4602 21.4551 9.96044 21.4551 7.02522C21.4551 3.40602 24.4568 0.458496 28.14 0.458496C31.8232 0.458496 34.8224 3.40602 34.8224 7.02522C34.8224 9.97274 32.7528 12.4602 30.2096 13.3607V24.6784C32.7403 25.3623 34.8224 27.8473 34.8224 30.7948C34.8224 31.4763 34.8224 31.9291 34.5869 32.3793L44.4965 38.0455C45.8846 36.9113 47.4982 36.2298 49.1093 36.2298C52.7925 36.2298 55.7942 39.165 55.7942 42.7965C55.7942 46.428 52.7925 49.3632 49.1093 49.3632C45.4261 49.3632 42.4244 46.4157 42.4244 42.7965C42.4244 42.3463 42.6599 41.8812 42.6599 41.212ZM49.1093 25.5813C45.4261 25.5813 42.4244 22.6313 42.4244 19.0146C42.4244 15.3954 45.4261 12.4479 49.1093 12.4479C52.7925 12.4479 55.7942 15.3954 55.7942 19.0146C55.7942 22.6313 52.7925 25.5813 49.1093 25.5813Z" fill="#1AFFD5"/>
</svg>
